<!DOCTYPE svg PUBLIC "-//W3C//DTD SVG 20010904//EN" "http://www.w3.org/TR/2001/REC-SVG-20010904/DTD/svg10.dtd">
<svg version="1.0" xmlns="http://www.w3.org/2000/svg" width="167px" height="148px" viewBox="0 0 5120 5120" preserveAspectRatio="xMidYMid meet">
<g id="layer101" fill="#ffffff" stroke="none">
 <path d="M1438 4691 c-83 -27 -138 -63 -198 -128 -60 -65 -119 -181 -144 -283 -55 -226 -33 -563 60 -934 5 -22 -1 -26 -93 -56 -576 -191 -881 -476 -860 -805 18 -295 326 -561 848 -734 l96 -32 -13 -57 c-46 -193 -58 -296 -58 -512 -1 -192 1 -224 22 -305 59 -233 191 -380 381 -425 139 -33 341 7 531 106 147 76 391 256 504 373 l39 40 71 -67 c349 -331 709 -502 971 -463 213 31 355 175 422 429 24 88 26 115 27 292 0 114 -5 228 -13 275 -14 87 -49 270 -57 297 -4 13 15 23 93 49 674 223 982 599 802 979 -103 218 -380 413 -777 547 -139 47 -143 49 -136 73 65 255 88 426 88 640 -1 141 -5 193 -22 267 -52 229 -166 374 -340 432 -81 28 -237 29 -337 2 -212 -56 -441 -195 -691 -419 l-99 -89 -88 83 c-223 210 -486 371 -696 425 -98 25 -254 25 -333 0z m320 -227 c167 -55 382 -196 581 -381 l65 -59 -88 -100 c-82 -93 -195 -235 -304 -384 -38 -52 -53 -66 -77 -68 -79 -7 -323 -45 -430 -67 -66 -13 -123 -21 -127 -17 -11 11 -54 210 -73 337 -20 132 -23 365 -6 454 53 275 204 369 459 285z m1896 2 c84 -49 141 -155 167 -310 18 -109 6 -364 -25 -526 -24 -128 -51 -238 -58 -246 -2 -1 -58 8 -123 21 -136 28 -381 65 -426 65 -35 0 -32 -3 -173 185 -58 77 -150 192 -205 255 l-100 115 67 64 c195 186 423 333 602 388 104 32 208 28 274 -11z m-898 -837 c52 -64 94 -118 94 -121 0 -2 -133 -4 -295 -4 -162 0 -295 2 -295 4 0 7 145 187 224 278 l70 80 54 -60 c30 -34 97 -113 148 -177z m221 -355 c41 -6 45 -10 112 -113 89 -137 206 -342 281 -490 l58 -118 -70 -134 c-121 -232 -311 -547 -381 -633 l-24 -30 -275 -4 c-151 -3 -332 -1 -401 3 l-126 7 -89 136 c-49 76 -111 175 -139 222 -76 127 -233 423 -233 439 0 34 202 400 332 603 l69 106 72 6 c40 4 95 8 122 10 75 6 644 -3 692 -10z m-1179 -56 c-40 -64 -93 -156 -157 -272 l-70 -128 -16 38 c-19 47 -115 303 -115 308 0 6 86 25 230 51 74 13 137 24 139 24 2 1 -3 -9 -11 -21z m1781 -28 c52 -11 95 -21 97 -23 2 -2 -89 -248 -118 -317 l-14 -34 -56 104 c-30 58 -83 151 -117 207 -33 56 -61 104 -61 106 0 6 153 -19 269 -43z m-2311 -203 c24 -67 73 -191 109 -276 l66 -154 -23 -51 c-58 -135 -131 -323 -171 -441 -24 -71 -44 -131 -44 -132 -3 -5 -170 54 -260 92 -243 100 -435 246 -499 377 -24 50 -28 67 -24 125 6 114 65 202 207 309 106 79 286 171 451 229 69 24 130 44 135 44 6 1 29 -54 53 -122z m2758 82 c505 -173 761 -438 647 -670 -58 -118 -251 -267 -471 -363 -90 -39 -283 -108 -288 -103 -2 1 -29 77 -60 167 -31 90 -85 231 -119 313 l-64 149 58 137 c59 136 151 382 151 401 0 17 22 12 146 -31z m-2376 -916 c41 -75 106 -186 143 -246 38 -60 67 -110 65 -112 -5 -4 -106 12 -284 46 l-162 31 38 111 c51 152 111 307 119 307 3 0 40 -62 81 -137z m1931 55 c36 -95 118 -332 115 -335 -9 -10 -436 -86 -443 -79 -2 2 33 64 79 138 46 73 110 184 143 246 33 61 63 112 67 112 3 0 21 -37 39 -82z m-2071 -577 c146 -30 315 -56 446 -69 l71 -7 91 -120 c50 -66 134 -169 186 -230 l95 -110 -37 -38 c-109 -114 -326 -274 -469 -346 -213 -107 -365 -116 -469 -27 -109 93 -161 320 -135 586 12 126 59 390 70 390 3 0 71 -13 151 -29z m2269 -73 c37 -170 54 -339 47 -478 -10 -234 -69 -369 -190 -433 -58 -31 -175 -30 -271 2 -172 57 -390 200 -593 388 l-63 58 95 110 c53 61 137 164 189 230 l93 120 120 12 c127 14 383 55 474 78 30 7 60 14 66 14 6 1 21 -44 33 -101z m-1001 -46 c-8 -9 -59 -70 -113 -134 -54 -65 -102 -118 -106 -118 -8 0 -183 200 -219 250 l-18 25 235 -3 c221 -3 235 -4 221 -20z"/>
 <path d="M2450 3064 c-197 -42 -353 -200 -395 -399 -18 -88 -18 -122 0 -210 42 -201 199 -358 400 -400 39 -8 86 -15 105 -15 63 0 174 29 239 62 84 43 176 135 219 219 33 65 62 176 62 239 0 19 -7 67 -15 105 -42 201 -199 358 -400 400 -85 18 -130 18 -215 -1z"/>
 </g>

</svg>